{
  "accessors": [
    {
      "bufferView": 2,
      "componentType": 5126,
      "count": 3417,
      "max": [
        27.14896011352539,
        11.689603805541992,
        77.51602935791016
      ],
      "min": [
        -27.148954391479492,
        -9.926164627075195,
        -0.06128399819135666
      ],
      "type": "VEC3"
    },
    {
      "bufferView": 2,
      "byteOffset": 41004,
      "componentType": 5126,
      "count": 3417,
      "max": [
        0.9998431205749512,
        0.9999446272850037,
        0.9999997615814209
      ],
      "min": [
        -0.9999842643737793,
        -0.9998751282691956,
        -1.0
      ],
      "type": "VEC3"
    },
    {
      "bufferView": 1,
      "componentType": 5126,
      "count": 3417,
      "max": [
        0.9985659718513489,
        0.9975860118865967
      ],
      "min": [
        0.0008379999781027436,
        0.0008549999911338091
      ],
      "type": "VEC2"
    },
    {
      "bufferView": 0,
      "componentType": 5125,
      "count": 15090,
      "type": "SCALAR"
    },
    {
      "bufferView": 2,
      "byteOffset": 82008,
      "componentType": 5126,
      "count": 24,
      "max": [
        2.5210120677948,
        -4.772984981536865,
        72.14471435546875
      ],
      "min": [
        -2.512442111968994,
        -6.346216201782227,
        69.93315887451172
      ],
      "type": "VEC3"
    },
    {
      "bufferView": 2,
      "byteOffset": 82296,
      "componentType": 5126,
      "count": 24,
      "max": [
        0.9160487055778503,
        0.3878338634967804,
        0.6967459321022034
      ],
      "min": [
        -0.962062656879425,
        -0.9540208578109741,
        -0.568835973739624
      ],
      "type": "VEC3"
    },
    {
      "bufferView": 1,
      "byteOffset": 27336,
      "componentType": 5126,
      "count": 24,
      "max": [
        0.9808520078659058,
        0.9488720297813416
      ],
      "min": [
        0.021981999278068542,
        0.044077999889850616
      ],
      "type": "VEC2"
    },
    {
      "bufferView": 0,
      "byteOffset": 60360,
      "componentType": 5125,
      "count": 60,
      "type": "SCALAR"
    }
  ],
  "asset": {
    "extras": {
      "author": "3axap (https://sketchfab.com/3axapV)",
      "license": "CC-BY-4.0 (http://creativecommons.org/licenses/by/4.0/)",
      "source": "https://sketchfab.com/3d-models/ct-sas-7c73c0f836f146bfaaa4c310e3e141f9",
      "title": "CT sas"
    },
    "generator": "Sketchfab-12.66.0",
    "version": "2.0"
  },
  "bufferViews": [
    {
      "buffer": 0,
      "byteLength": 60600,
      "name": "floatBufferViews",
      "target": 34963
    },
    {
      "buffer": 0,
      "byteLength": 27528,
      "byteOffset": 60600,
      "byteStride": 8,
      "name": "floatBufferViews",
      "target": 34962
    },
    {
      "buffer": 0,
      "byteLength": 82584,
      "byteOffset": 88128,
      "byteStride": 12,
      "name": "floatBufferViews",
      "target": 34962
    }
  ],
  "buffers": [
    {
      "byteLength": 170712,
      "uri": "scene.bin"
    }
  ],
  "extensionsRequired": [
    "KHR_materials_pbrSpecularGlossiness"
  ],
  "extensionsUsed": [
    "KHR_materials_pbrSpecularGlossiness"
  ],
  "images": [
    {
      "uri": "textures/ct_sas_diffuse.png"
    },
    {
      "uri": "textures/ct_sas_glass_diffuse.png"
    },
    {
      "uri": "textures/ct_sas_glass_specularGlossiness.png"
    }
  ],
  "materials": [
    {
      "doubleSided": true,
      "extensions": {
        "KHR_materials_pbrSpecularGlossiness": {
          "diffuseFactor": [
            1.0,
            1.0,
            1.0,
            1.0
          ],
          "diffuseTexture": {
            "index": 0
          },
          "glossinessFactor": 0.0,
          "specularFactor": [
            0.0,
            0.0,
            0.0
          ]
        }
      },
      "name": "ct_sas"
    },
    {
      "alphaMode": "BLEND",
      "doubleSided": true,
      "extensions": {
        "KHR_materials_pbrSpecularGlossiness": {
          "diffuseFactor": [
            1.0,
            1.0,
            1.0,
            1.0
          ],
          "diffuseTexture": {
            "index": 1
          },
          "glossinessFactor": 1.0,
          "specularFactor": [
            1.0,
            1.0,
            1.0
          ],
          "specularGlossinessTexture": {
            "index": 2
          }
        }
      },
      "name": "ct_sas_glass"
    }
  ],
  "meshes": [
    {
      "name": "Object_0",
      "primitives": [
        {
          "attributes": {
            "NORMAL": 1,
            "POSITION": 0,
            "TEXCOORD_0": 2
          },
          "indices": 3,
          "material": 0,
          "mode": 4
        }
      ]
    },
    {
      "name": "Object_1",
      "primitives": [
        {
          "attributes": {
            "NORMAL": 5,
            "POSITION": 4,
            "TEXCOORD_0": 6
          },
          "indices": 7,
          "material": 1,
          "mode": 4
        }
      ]
    }
  ],
  "nodes": [
    {
      "children": [
        1
      ],
      "matrix": [
        1.0,
        0.0,
        0.0,
        0.0,
        0.0,
        2.220446049250313e-16,
        -1.0,
        0.0,
        0.0,
        1.0,
        2.220446049250313e-16,
        0.0,
        0.0,
        0.0,
        0.0,
        1.0
      ],
      "name": "Sketchfab_model"
    },
    {
      "children": [
        2,
        3
      ],
      "name": "asdasd.obj.cleaner.materialmerger.gles"
    },
    {
      "mesh": 0,
      "name": "Object_2"
    },
    {
      "mesh": 1,
      "name": "Object_3"
    }
  ],
  "samplers": [
    {
      "magFilter": 9729,
      "minFilter": 9987,
      "wrapS": 10497,
      "wrapT": 10497
    }
  ],
  "scene": 0,
  "scenes": [
    {
      "name": "Sketchfab_Scene",
      "nodes": [
        0
      ]
    }
  ],
  "textures": [
    {
      "sampler": 0,
      "source": 0
    },
    {
      "sampler": 0,
      "source": 1
    },
    {
      "sampler": 0,
      "source": 2
    }
  ]
}
